<svg width="224" height="55" viewBox="0 0 224 55" fill="none" xmlns="http://www.w3.org/2000/svg">
<path d="M2.5 54V50.428H19.752C23.5013 50.428 26.4907 49.4147 28.72 47.388C31 45.3107 32.14 42.6507 32.14 39.408C32.14 37.28 31.6333 35.4053 30.62 33.784C29.6573 32.112 28.2893 30.82 26.516 29.908C24.7933 28.9453 22.7667 28.464 20.436 28.464H2.5V25.044H19.828C22.868 25.044 25.2747 24.1827 27.048 22.46C28.872 20.7373 29.784 18.3813 29.784 15.392C29.784 12.352 28.796 9.996 26.82 8.324C24.844 6.60133 22.2093 5.74 18.916 5.74H2.5V2.168H18.916C22.0573 2.168 24.7173 2.72533 26.896 3.84C29.1253 4.904 30.8227 6.39866 31.988 8.324C33.204 10.2493 33.812 12.504 33.812 15.088C33.812 18.0267 33.0267 20.56 31.456 22.688C29.936 24.816 27.732 26.3613 24.844 27.324L25.3 25.956C28.6947 26.9187 31.3547 28.616 33.28 31.048C35.256 33.4293 36.244 36.292 36.244 39.636C36.244 42.4227 35.56 44.9053 34.192 47.084C32.824 49.2627 30.8733 50.96 28.34 52.176C25.8573 53.392 22.868 54 19.372 54H2.5ZM0.0680002 54V2.168H4.096V54H0.0680002ZM76.9117 54V0.647998H80.7877V54H76.9117ZM116.065 54.76C112.569 54.76 109.402 53.9493 106.565 52.328C103.778 50.7067 101.574 48.5027 99.9528 45.716C98.3315 42.9293 97.5208 39.788 97.5208 36.292C97.5208 32.796 98.3061 29.68 99.8768 26.944C101.447 24.1573 103.601 21.9533 106.337 20.332C109.123 18.7107 112.214 17.9 115.609 17.9C118.851 17.9 121.689 18.6347 124.121 20.104C126.603 21.5227 128.529 23.4987 129.897 26.032C131.315 28.5653 132.025 31.4787 132.025 34.772C132.025 35.076 131.999 35.4813 131.949 35.988C131.898 36.444 131.822 37.0267 131.721 37.736H100.257V34.392H129.517L128.225 35.456C128.326 32.6693 127.87 30.2373 126.857 28.16C125.843 26.032 124.374 24.3853 122.449 23.22C120.523 22.0547 118.218 21.472 115.533 21.472C112.746 21.472 110.289 22.1053 108.161 23.372C106.033 24.588 104.361 26.2853 103.145 28.464C101.979 30.6427 101.397 33.176 101.397 36.064C101.397 39.104 102.005 41.764 103.221 44.044C104.487 46.2733 106.235 48.0213 108.465 49.288C110.694 50.504 113.303 51.112 116.293 51.112C118.573 51.112 120.675 50.7067 122.601 49.896C124.577 49.0347 126.223 47.768 127.541 46.096L130.125 48.604C128.503 50.5293 126.451 52.0493 123.969 53.164C121.537 54.228 118.902 54.76 116.065 54.76ZM152.507 54V3.688H156.383V54H152.507ZM143.387 22.08V18.66H165.503V22.08H143.387ZM218.679 54L200.439 28.996H199.755L179.311 2.168H184.099L201.883 25.576H202.567L223.467 54H218.679ZM178.475 54L199.223 26.792L201.807 29.3L183.035 54H178.475ZM202.871 28.616L200.439 26.032L218.147 2.168H222.707L202.871 28.616Z" fill="white"/>
<path d="M53.9502 54V18.66H57.7502V54H53.9502ZM55.8502 10.452C54.9889 10.452 54.2542 10.148 53.6462 9.54C53.0889 8.88133 52.8102 8.12133 52.8102 7.26C52.8102 6.39866 53.0889 5.68933 53.6462 5.132C54.2542 4.524 54.9889 4.22 55.8502 4.22C56.7116 4.22 57.4462 4.524 58.0542 5.132C58.6622 5.68933 58.9662 6.39866 58.9662 7.26C58.9662 8.12133 58.6622 8.88133 58.0542 9.54C57.4462 10.148 56.7116 10.452 55.8502 10.452Z" fill="#EEAEF8" fill-opacity="0.9"/>
</svg>
