<svg width="27" height="27" viewBox="0 0 27 27" fill="none" xmlns="http://www.w3.org/2000/svg">
<path d="M13.5 26.9869C15.3441 26.9869 17.0802 26.6341 18.7081 25.9285C20.336 25.223 21.7721 24.2485 23.0161 23.0049C24.2603 21.7615 25.2353 20.3261 25.9411 18.6989C26.647 17.0718 27 15.3367 27 13.4934C27 11.6502 26.647 9.91501 25.9411 8.28786C25.2353 6.66072 24.2603 5.22539 23.0161 3.98188C21.7721 2.73837 20.3338 1.76384 18.7014 1.05831C17.0691 0.352769 15.3309 0 13.4867 0C11.6426 0 9.90661 0.352769 8.27867 1.05831C6.65073 1.76384 5.2169 2.73837 3.9772 3.98188C2.7375 5.22539 1.7647 6.66072 1.05882 8.28786C0.352941 9.91501 0 11.6502 0 13.4934C0 15.3367 0.352941 17.0718 1.05882 18.6989C1.7647 20.3261 2.7397 21.7615 3.98381 23.0049C5.22794 24.2485 6.66396 25.223 8.2919 25.9285C9.91984 26.6341 11.6559 26.9869 13.5 26.9869ZM13.5 24.7379C11.9382 24.7379 10.4779 24.4469 9.11911 23.8648C7.76029 23.2828 6.5669 22.4781 5.53896 21.4506C4.51102 20.4232 3.70808 19.2304 3.13014 17.8722C2.5522 16.5141 2.26323 15.0545 2.26323 13.4934C2.26323 11.9324 2.5522 10.4728 3.13014 9.11467C3.70808 7.75651 4.50882 6.5615 5.53234 5.52965C6.55587 4.4978 7.74705 3.69304 9.10587 3.11538C10.4647 2.53773 11.925 2.24891 13.4867 2.24891C15.0485 2.24891 16.5088 2.53773 17.8676 3.11538C19.2264 3.69304 20.422 4.4978 21.4544 5.52965C22.4868 6.5615 23.2941 7.75651 23.8765 9.11467C24.4588 10.4728 24.7499 11.9324 24.7499 13.4934C24.7499 15.0545 24.461 16.5141 23.8831 17.8722C23.3051 19.2304 22.5021 20.4232 21.4742 21.4506C20.4463 22.4781 19.2507 23.2828 17.8874 23.8648C16.5243 24.4469 15.0618 24.7379 13.5 24.7379ZM22.5529 22.2112L22.5132 22.0657C22.2926 21.4131 21.7786 20.7737 20.9713 20.1475C20.164 19.5213 19.1228 19.0055 17.8477 18.5998C16.5727 18.194 15.1235 17.9911 13.5 17.9911C11.8853 17.9911 10.4404 18.194 9.16544 18.5998C7.89043 19.0055 6.84705 19.5213 6.03528 20.1475C5.22352 20.7737 4.70735 21.4087 4.48676 22.0525L4.44705 22.2112C5.24117 22.9961 6.18088 23.6664 7.26617 24.2221C8.35146 24.7776 9.44778 25.2031 10.5551 25.4985C11.6625 25.794 12.6441 25.9418 13.5 25.9418C14.3647 25.9418 15.3486 25.794 16.4515 25.4985C17.5544 25.2031 18.6463 24.7776 19.7272 24.2221C20.8081 23.6664 21.75 22.9961 22.5529 22.2112ZM13.5 15.7423C14.347 15.7512 15.1147 15.5373 15.803 15.1008C16.4912 14.6642 17.036 14.0667 17.4375 13.3082C17.8389 12.5498 18.0396 11.6987 18.0396 10.755C18.0396 9.8643 17.8367 9.04852 17.4308 8.3077C17.025 7.56689 16.4801 6.9738 15.7963 6.52844C15.1125 6.08306 14.347 5.86037 13.5 5.86037C12.6529 5.86037 11.8853 6.08306 11.197 6.52844C10.5088 6.9738 9.96175 7.56689 9.55587 8.3077C9.14999 9.04852 8.95146 9.8643 8.96029 10.755C8.9691 11.6987 9.17425 12.5453 9.57572 13.295C9.9772 14.0446 10.5198 14.6377 11.2037 15.0742C11.8875 15.5108 12.6529 15.7335 13.5 15.7423Z" fill="#EEAEF8" fill-opacity="0.9"/>
</svg>
